<svg width="58" height="58" version="1.1" xmlns="http://www.w3.org/2000/svg" desc="Created with imagetracer.js version 1.2.6" ><path fill="rgb(255,255,255)" stroke="rgb(255,255,255)" stroke-width="1" opacity="0.9921568627450981" d="M 35.5 2 L 38.5 3 L 51 15.5 L 51 18.5 L 45.5 24 L 40.5 23 L 37 25 L 37 26.5 L 57 47.5 L 56 47.5 L 36.5 27 L 32 30.5 L 52.5 51 L 54.5 51 L 57 49.5 Q 57.8 51.8 55.5 51 L 52.5 52 L 31.5 32 L 30 32 L 28 36.5 L 29 39.5 L 24.5 45 L 21.5 46 L 8 35 L 7 29.5 L 12.5 24 L 15.5 24 L 17.5 24 L 19.5 23 L 18 25.5 L 27.5 35 L 37.5 24 L 40 22.5 L 30.5 13 L 29 14.5 L 25.5 19 L 28 15.5 L 30 12.5 L 29 7.5 L 35.5 2 Z M 36 3 L 34 4 Q 30 6 30 11 L 43 23 L 46 23 L 50 19 L 50 16 L 39 4 L 36 3 Z M 13 25 L 8 30 L 8 33 L 22 45 L 24 44 L 28 40 L 28 38 L 16 25 L 13 25 Z " /><path fill="rgb(255,255,255)" stroke="rgb(255,255,255)" stroke-width="1" opacity="0.9921568627450981" d="M 1.5 55 L 31 55.5 L 1.5 56 L 1.5 55 Z " /><path fill="rgb(0,0,0)" stroke="rgb(0,0,0)" stroke-width="1" opacity="0" d="M 0 0 L 58 0 L 58 44.5 L 39 26.5 Q 38.3 24.3 40.5 25 L 42.5 25 Q 48.9 24.9 51 20.5 L 52 14.5 L 39.5 2 L 35.5 1 L 28 7.5 L 28 13.5 Q 23.3 14.9 24 20 Q 27.8 20.8 29 17.5 L 30.5 15 L 38 21.5 L 36.5 24 L 28 31.5 Q 28.8 33.8 26.5 33 L 20 25.5 L 21 23 Q 25.5 24.5 24 20 L 21 20 Q 22.3 23 18.5 22 Q 17 24.5 11.5 23 L 6 28.5 L 6 33.5 L 18.5 46 L 24.5 46 L 30 40.5 Q 28.5 34.5 31.5 33 L 51.5 53 L 55.5 53 L 58 51.5 Q 58.8 57.8 57.5 58 L 0.5 58 L 0.5 57 L 31.5 57 L 32 54 L 0 54 L 0 0 Z M 3 49 L 4 51 L 29 51 L 29 49 L 3 49 Z " /><path fill="rgb(0,0,0)" stroke="rgb(0,0,0)" stroke-width="1" opacity="0" d="M 35.5 4 L 48 14.5 L 49 17.5 L 43.5 22 L 31 10.5 L 31 8.5 L 35.5 4 Z " /><path fill="rgb(0,0,0)" stroke="rgb(0,0,0)" stroke-width="1" opacity="0" d="M 13.5 26 L 16.5 27 L 27 37.5 Q 27.5 42.5 23.5 43 L 21.5 44 L 9 32.5 L 9 30.5 L 13.5 26 Z " /><path fill="rgb(0,0,0)" stroke="rgb(0,0,0)" stroke-width="1" opacity="0" d="M 35.5 29 L 55 46.5 Q 56.7 51.3 52.5 50 L 34 30.5 L 35.5 29 Z " /><path fill="rgb(255,255,255)" stroke="rgb(255,255,255)" stroke-width="1" opacity="0.6823529411764706" d="M 38.5 4 L 45.5 12 L 38.5 4 Z " /><path fill="rgb(255,255,255)" stroke="rgb(255,255,255)" stroke-width="1" opacity="0.6823529411764706" d="M 27.5 17 L 25.5 20 L 24.5 18 Q 26 20.5 27.5 17 Z " /><path fill="rgb(255,255,255)" stroke="rgb(255,255,255)" stroke-width="1" opacity="0.6823529411764706" d="M 48.5 19 L 51 19.5 L 46 23.5 L 48.5 19 Z " /><path fill="rgb(255,255,255)" stroke="rgb(255,255,255)" stroke-width="1" opacity="0.6823529411764706" d="M 22.5 20 L 23.5 22 L 21 21.5 L 22.5 20 Z " /><path fill="rgb(255,255,255)" stroke="rgb(255,255,255)" stroke-width="1" opacity="0.6823529411764706" d="M 18.5 23 L 21 23.5 L 18 25.5 L 18.5 23 Z " /><path fill="rgb(255,255,255)" stroke="rgb(255,255,255)" stroke-width="1" opacity="0.6823529411764706" d="M 11.5 26 L 8.5 30 L 11.5 26 Z " /><path fill="rgb(255,255,255)" stroke="rgb(255,255,255)" stroke-width="1" opacity="0.6823529411764706" d="M 35.5 27 L 49 39.5 L 36.5 28 L 32.5 31 L 35.5 27 Z " /><path fill="rgb(255,255,255)" stroke="rgb(255,255,255)" stroke-width="1" opacity="0.6823529411764706" d="M 30.5 30 L 29.5 32 L 30.5 30 Z " /><path fill="rgb(255,255,255)" stroke="rgb(255,255,255)" stroke-width="1" opacity="0.6823529411764706" d="M 27.5 37 L 28 39.5 L 27 39.5 L 27.5 37 Z " /><path fill="rgb(255,255,255)" stroke="rgb(255,255,255)" stroke-width="1" opacity="0.6823529411764706" d="M 14.5 38 L 19.5 44 L 14.5 38 Z " /><path fill="rgb(255,255,255)" stroke="rgb(255,255,255)" stroke-width="1" opacity="0.6823529411764706" d="M 1.5 54 L 30.5 54 L 32 55.5 L 30.5 55 L 1.5 55 L 1.5 54 Z " /><path fill="rgb(255,255,255)" stroke="rgb(255,255,255)" stroke-width="1" opacity="0.43137254901960786" d="M 33.5 2 L 29.5 7 L 33.5 2 Z " /><path fill="rgb(255,255,255)" stroke="rgb(255,255,255)" stroke-width="1" opacity="0.43137254901960786" d="M 28.5 8 L 29 10.5 L 28 10.5 L 28.5 8 Z " /><path fill="rgb(255,255,255)" stroke="rgb(255,255,255)" stroke-width="1" opacity="0.43137254901960786" d="M 46.5 12 L 48.5 15 L 46.5 12 Z " /><path fill="rgb(255,255,255)" stroke="rgb(255,255,255)" stroke-width="1" opacity="0.43137254901960786" d="M 31.5 14 L 36.5 20 L 31.5 14 Z " /><path fill="rgb(255,255,255)" stroke="rgb(255,255,255)" stroke-width="1" opacity="0.43137254901960786" d="M 34.5 14 L 41.5 22 L 34.5 14 Z " /><path fill="rgb(255,255,255)" stroke="rgb(255,255,255)" stroke-width="1" opacity="0.43137254901960786" d="M 51.5 15 L 52 17.5 L 51 17.5 L 51.5 15 Z " /><path fill="rgb(255,255,255)" stroke="rgb(255,255,255)" stroke-width="1" opacity="0.43137254901960786" d="M 24.5 19 L 23.5 21 L 24.5 19 Z " /><path fill="rgb(255,255,255)" stroke="rgb(255,255,255)" stroke-width="1" opacity="0.43137254901960786" d="M 37.5 23 L 36.5 25 L 37.5 23 Z " /><path fill="rgb(255,255,255)" stroke="rgb(255,255,255)" stroke-width="1" opacity="0.43137254901960786" d="M 16.5 26 L 24.5 35 L 16.5 26 Z " /><path fill="rgb(255,255,255)" stroke="rgb(255,255,255)" stroke-width="1" opacity="0.43137254901960786" d="M 20.5 27 L 26.5 34 L 20.5 27 Z " /><path fill="rgb(255,255,255)" stroke="rgb(255,255,255)" stroke-width="1" opacity="0.43137254901960786" d="M 33.5 31 L 51.5 50 L 33.5 31 Z " /><path fill="rgb(255,255,255)" stroke="rgb(255,255,255)" stroke-width="1" opacity="0.43137254901960786" d="M 31.5 32 L 40.5 42 L 31.5 32 Z " /><path fill="rgb(255,255,255)" stroke="rgb(255,255,255)" stroke-width="1" opacity="0.43137254901960786" d="M 9.5 33 L 13.5 38 L 9.5 33 Z " /><path fill="rgb(255,255,255)" stroke="rgb(255,255,255)" stroke-width="1" opacity="0.43137254901960786" d="M 26.5 40 L 24.5 43 L 26.5 40 Z " /><path fill="rgb(255,255,255)" stroke="rgb(255,255,255)" stroke-width="1" opacity="0.43137254901960786" d="M 49.5 40 L 55.5 47 L 49.5 40 Z " /><path fill="rgb(255,255,255)" stroke="rgb(255,255,255)" stroke-width="1" opacity="0.43137254901960786" d="M 27.5 42 L 26.5 44 L 27.5 42 Z " /><path fill="rgb(255,255,255)" stroke="rgb(255,255,255)" stroke-width="1" opacity="0.13333333333333333" d="M 35.5 1 L 38 1.5 L 35.5 2 L 35.5 1 Z " /><path fill="rgb(255,255,255)" stroke="rgb(255,255,255)" stroke-width="1" opacity="0.13333333333333333" d="M 39.5 2 L 51.5 15 L 39.5 2 Z " /><path fill="rgb(255,255,255)" stroke="rgb(255,255,255)" stroke-width="1" opacity="0.13333333333333333" d="M 37.5 4 L 44.5 12 L 37.5 4 Z " /><path fill="rgb(255,255,255)" stroke="rgb(255,255,255)" stroke-width="1" opacity="0.13333333333333333" d="M 33.5 5 L 31.5 8 L 33.5 5 Z " /><path fill="rgb(255,255,255)" stroke="rgb(255,255,255)" stroke-width="1" opacity="0.13333333333333333" d="M 31.5 11 L 33.5 14 L 31.5 11 Z " /><path fill="rgb(255,255,255)" stroke="rgb(255,255,255)" stroke-width="1" opacity="0.13333333333333333" d="M 30.5 14 L 29.5 16 L 30.5 14 Z " /><path fill="rgb(255,255,255)" stroke="rgb(255,255,255)" stroke-width="1" opacity="0.13333333333333333" d="M 26.5 15 L 24.5 18 L 26.5 15 Z " /><path fill="rgb(255,255,255)" stroke="rgb(255,255,255)" stroke-width="1" opacity="0.13333333333333333" d="M 28.5 17 L 26.5 20 L 28.5 17 Z " /><path fill="rgb(255,255,255)" stroke="rgb(255,255,255)" stroke-width="1" opacity="0.13333333333333333" d="M 48.5 18 L 45.5 22 L 48.5 18 Z " /><path fill="rgb(255,255,255)" stroke="rgb(255,255,255)" stroke-width="1" opacity="0.13333333333333333" d="M 37.5 20 L 39 22.5 L 38 22.5 L 37.5 20 Z " /><path fill="rgb(255,255,255)" stroke="rgb(255,255,255)" stroke-width="1" opacity="0.13333333333333333" d="M 50.5 20 L 47.5 24 L 50.5 20 Z " /><path fill="rgb(255,255,255)" stroke="rgb(255,255,255)" stroke-width="1" opacity="0.13333333333333333" d="M 18.5 22 L 17.5 24 L 15 23.5 L 18.5 22 Z " /><path fill="rgb(255,255,255)" stroke="rgb(255,255,255)" stroke-width="1" opacity="0.13333333333333333" d="M 11.5 23 L 13 23.5 L 6.5 29 L 11.5 23 Z " /><path fill="rgb(255,255,255)" stroke="rgb(255,255,255)" stroke-width="1" opacity="0.13333333333333333" d="M 20.5 24 L 20 25.5 L 19.5 27 L 19 25.5 L 20.5 24 Z " /><path fill="rgb(255,255,255)" stroke="rgb(255,255,255)" stroke-width="1" opacity="0.13333333333333333" d="M 35.5 24 L 28.5 32 L 35.5 24 Z " /><path fill="rgb(255,255,255)" stroke="rgb(255,255,255)" stroke-width="1" opacity="0.13333333333333333" d="M 12.5 26 L 9.5 30 L 12.5 26 Z " /><path fill="rgb(255,255,255)" stroke="rgb(255,255,255)" stroke-width="1" opacity="0.13333333333333333" d="M 38.5 26 L 57.5 46 L 38.5 26 Z " /><path fill="rgb(255,255,255)" stroke="rgb(255,255,255)" stroke-width="1" opacity="0.13333333333333333" d="M 35.5 28 L 48 39.5 L 36.5 29 L 33.5 31 L 35.5 28 Z " /><path fill="rgb(255,255,255)" stroke="rgb(255,255,255)" stroke-width="1" opacity="0.13333333333333333" d="M 6.5 33 L 18.5 46 L 6.5 33 Z " /><path fill="rgb(255,255,255)" stroke="rgb(255,255,255)" stroke-width="1" opacity="0.13333333333333333" d="M 29.5 35 L 30 37.5 L 29 37.5 L 29.5 35 Z " /><path fill="rgb(255,255,255)" stroke="rgb(255,255,255)" stroke-width="1" opacity="0.13333333333333333" d="M 14.5 37 L 20.5 44 L 14.5 37 Z " /><path fill="rgb(255,255,255)" stroke="rgb(255,255,255)" stroke-width="1" opacity="0.13333333333333333" d="M 29.5 39 L 30 40.5 L 28 41.5 L 29.5 39 Z " /><path fill="rgb(255,255,255)" stroke="rgb(255,255,255)" stroke-width="1" opacity="0.13333333333333333" d="M 41.5 42 L 53 52.5 L 51.5 53 L 41.5 42 Z " /><path fill="rgb(255,255,255)" stroke="rgb(255,255,255)" stroke-width="1" opacity="0.13333333333333333" d="M 25.5 44 L 24.5 46 L 25.5 44 Z " /><path fill="rgb(255,255,255)" stroke="rgb(255,255,255)" stroke-width="1" opacity="0.13333333333333333" d="M 57.5 50 L 55.5 53 L 54 52.5 L 57.5 50 Z " /><path fill="rgb(255,255,255)" stroke="rgb(255,255,255)" stroke-width="1" opacity="0.13333333333333333" d="M 0.5 56 L 32 56.5 L 0.5 57 L 0.5 56 Z " /><path fill="rgb(255,255,255)" stroke="rgb(255,255,255)" stroke-width="1" opacity="0.9019607843137255" d="M 34.5 2 L 35.5 4 L 34.5 2 Z " /><path fill="rgb(255,255,255)" stroke="rgb(255,255,255)" stroke-width="1" opacity="0.9019607843137255" d="M 39.5 3 L 50.5 15 L 39.5 3 Z " /><path fill="rgb(255,255,255)" stroke="rgb(255,255,255)" stroke-width="1" opacity="0.9019607843137255" d="M 33.5 4 L 31.5 7 L 33.5 4 Z " /><path fill="rgb(255,255,255)" stroke="rgb(255,255,255)" stroke-width="1" opacity="0.9019607843137255" d="M 29.5 12 Q 32.5 13.5 29.5 15 L 29.5 12 Z " /><path fill="rgb(255,255,255)" stroke="rgb(255,255,255)" stroke-width="1" opacity="0.9019607843137255" d="M 27.5 15 L 25.5 18 L 27.5 15 Z " /><path fill="rgb(255,255,255)" stroke="rgb(255,255,255)" stroke-width="1" opacity="0.9019607843137255" d="M 46.5 21 L 45.5 23 L 46.5 21 Z " /><path fill="rgb(255,255,255)" stroke="rgb(255,255,255)" stroke-width="1" opacity="0.9019607843137255" d="M 16.5 24 L 15.5 26 L 16.5 24 Z " /><path fill="rgb(255,255,255)" stroke="rgb(255,255,255)" stroke-width="1" opacity="0.9019607843137255" d="M 10.5 25 L 7.5 29 L 10.5 25 Z " /><path fill="rgb(255,255,255)" stroke="rgb(255,255,255)" stroke-width="1" opacity="0.9019607843137255" d="M 37.5 25 L 57 45.5 L 37 26.5 L 37.5 25 Z " /><path fill="rgb(255,255,255)" stroke="rgb(255,255,255)" stroke-width="1" opacity="0.9019607843137255" d="M 34.5 26 L 31.5 30 L 34.5 26 Z " /><path fill="rgb(255,255,255)" stroke="rgb(255,255,255)" stroke-width="1" opacity="0.9019607843137255" d="M 9.5 35 L 18.5 45 L 9.5 35 Z " /><path fill="rgb(255,255,255)" stroke="rgb(255,255,255)" stroke-width="1" opacity="0.9019607843137255" d="M 21.5 44 L 22.5 46 L 20 45.5 L 21.5 44 Z " /><path fill="rgb(255,255,255)" stroke="rgb(255,255,255)" stroke-width="1" opacity="0.9019607843137255" d="M 57.5 47 L 58 49 L 56 48.5 L 57.5 47 Z " /><path fill="rgb(255,255,255)" stroke="rgb(255,255,255)" stroke-width="1" opacity="0.9019607843137255" d="M 4 49 L 27.5 49 L 28 51 L 4.5 51 L 4 49 Z " /></svg>